<?xml version="1.0" standalone="no"?>
<!DOCTYPE svg PUBLIC "-//W3C//DTD SVG 20010904//EN"
 "http://www.w3.org/TR/2001/REC-SVG-20010904/DTD/svg10.dtd">
<svg version="1.0" xmlns="http://www.w3.org/2000/svg"
 width="800.000000pt" height="800.000000pt" viewBox="0 0 800.000000 800.000000"
 preserveAspectRatio="xMidYMid meet">
<metadata>
Created by potrace 1.14, written by Peter Selinger 2001-2017
</metadata>
<g transform="translate(0.000000,800.000000) scale(0.100000,-0.100000)"
fill="#000000" stroke="none">
<path d="M5825 6371 c-16 -3 -29 -10 -28 -14 1 -5 26 -29 54 -55 29 -26 64
-58 78 -71 15 -13 37 -31 50 -39 l24 -17 -34 -7 c-19 -4 -92 -11 -164 -14
-153 -8 -249 3 -495 52 -244 50 -417 50 -484 1 -19 -14 -18 -17 14 -97 19 -46
47 -98 63 -116 16 -19 25 -39 22 -45 -11 -17 -86 -49 -117 -49 -42 0 -84 43
-99 100 -11 44 -18 52 -55 71 -23 11 -63 36 -88 55 -39 30 -52 34 -103 34 -32
0 -76 -5 -98 -10 -22 -5 -87 -14 -144 -20 -95 -10 -242 -32 -299 -45 l-23 -6
26 46 c15 25 24 45 20 45 -4 0 -33 -7 -64 -15 -31 -8 -104 -19 -163 -24 -89
-9 -124 -17 -200 -50 -125 -53 -151 -58 -313 -66 -131 -6 -196 -14 -240 -31
-14 -6 -16 -4 -11 7 16 31 -68 -70 -105 -126 -22 -33 -59 -76 -81 -96 -36 -30
-42 -41 -44 -80 -1 -24 -18 -84 -37 -134 -19 -49 -47 -142 -61 -205 -49 -221
-45 -374 15 -567 32 -105 54 -240 63 -393 4 -52 9 -125 12 -162 l5 -67 -53 15
c-29 9 -127 42 -218 74 -217 77 -208 74 -190 61 28 -20 -29 -12 -185 25 -195
47 -269 49 -346 8 -34 -18 -59 -40 -68 -59 -13 -27 -12 -33 12 -76 25 -45 25
-48 8 -63 -17 -16 -21 -14 -61 31 -23 26 -52 65 -64 85 -11 21 -24 38 -28 38
-20 0 -6 -288 18 -364 4 -12 2 -16 -5 -12 -7 5 -11 -9 -11 -42 l0 -49 -92 -20
-93 -20 43 -8 44 -8 -109 -33 c-101 -31 -116 -33 -233 -31 -140 2 -170 -7
-210 -64 -32 -44 -28 -94 13 -175 19 -38 46 -103 61 -144 l26 -75 -52 56 c-40
42 -59 72 -77 125 -13 38 -41 110 -62 160 -40 95 -47 131 -28 165 9 19 9 19
-10 10 -38 -21 -41 -36 -56 -292 -7 -103 7 -233 31 -301 8 -22 12 -43 10 -45
-6 -6 -316 113 -491 189 -189 83 -220 90 -228 56 -4 -13 -9 -120 -13 -238 l-7
-215 119 -54 c431 -195 865 -349 1679 -596 584 -177 1373 -428 2210 -701 202
-67 328 -103 342 -99 13 3 23 1 23 -4 0 -20 792 383 1130 574 466 264 949 530
1215 670 61 32 169 90 240 130 72 39 184 100 250 135 66 35 192 102 280 150
88 48 221 119 295 158 74 38 154 81 177 93 l43 24 0 238 c0 208 -2 238 -16
244 -17 6 -33 -2 -434 -217 -140 -76 -291 -156 -335 -180 -388 -206 -1168
-633 -1520 -830 -154 -87 -365 -204 -470 -260 -261 -142 -846 -434 -866 -433
-9 1 -272 85 -585 186 -313 102 -609 198 -658 214 l-88 28 38 8 c102 23 342
90 367 104 l30 15 -5 94 -5 94 56 0 c31 0 126 -11 211 -24 249 -39 272 -41
315 -20 67 31 114 113 144 249 10 44 23 96 29 115 6 19 15 47 19 61 l8 27 157
-48 c148 -44 158 -46 190 -32 18 7 65 18 103 23 101 13 171 39 366 136 211
104 289 134 534 208 420 126 915 289 1000 329 80 38 155 94 155 115 0 24 308
100 441 108 l87 6 -14 33 c-21 51 -17 112 16 219 32 104 38 184 17 225 -11 21
-10 34 4 80 9 30 19 105 22 166 6 107 8 114 52 198 39 75 45 95 45 147 0 34 7
86 16 117 38 131 -2 309 -122 542 -79 153 -172 286 -283 402 -77 81 -204 196
-172 155 13 -16 8 -17 -66 -17 -107 0 -220 21 -405 74 -84 25 -191 52 -237 60
-82 16 -258 20 -316 7z m483 -410 c-82 -27 -118 -52 -207 -148 l-79 -85 -27
41 c-15 22 -38 70 -51 105 l-23 65 37 11 c75 22 130 28 267 28 l140 1 -57 -18z
m349 -88 c21 -10 40 -18 42 -20 4 -3 -17 -91 -41 -170 l-18 -62 -61 29 c-35
16 -95 33 -144 41 l-84 12 29 42 c38 55 82 92 145 121 60 28 82 29 132 7z
m-2972 -154 c22 -6 62 -27 88 -46 72 -53 131 -71 270 -83 231 -20 346 -67 473
-194 89 -89 155 -192 206 -321 26 -66 32 -98 36 -180 4 -92 1 -107 -27 -188
-60 -175 -85 -339 -96 -632 -7 -188 -21 -283 -66 -455 -34 -129 -127 -421
-138 -433 -4 -4 -70 17 -147 46 -76 30 -183 69 -237 87 -80 26 -122 48 -230
122 -73 49 -174 118 -224 151 -92 61 -107 77 -78 77 21 0 75 28 103 53 17 16
22 32 22 67 0 57 -26 95 -83 120 -52 24 -33 33 51 24 55 -5 75 -3 101 11 19 9
29 20 25 24 -5 5 -39 29 -75 54 -121 85 -190 104 -264 73 -33 -14 -35 -14 -35
5 0 70 -72 -59 -95 -170 -9 -41 -17 -76 -19 -78 -2 -2 -71 48 -154 110 l-151
114 -5 259 c-6 295 -14 372 -53 487 -26 79 -28 90 -28 287 0 216 10 283 54
367 39 76 36 75 121 53 112 -29 183 -27 247 10 28 16 64 46 79 65 26 34 28 35
93 34 36 0 91 -4 121 -8 30 -5 57 -7 58 -5 12 9 -39 67 -73 84 l-40 20 65 0
c36 0 83 -5 105 -11z m1508 -56 c103 -13 131 -20 134 -33 4 -14 22 -17 126
-16 93 0 135 -4 177 -18 49 -17 126 -63 118 -71 -2 -2 -28 3 -58 11 -96 25
-161 14 -242 -43 -100 -68 -126 -178 -68 -287 l29 -56 -46 31 c-68 47 -207
116 -263 130 -45 12 -50 15 -50 41 0 77 -46 127 -174 186 -46 22 -86 44 -89
49 -8 13 56 57 114 77 58 20 135 20 292 -1z m-3068 -1422 c22 -5 30 -9 18 -10
-15 -1 -21 -6 -17 -15 3 -8 -3 -16 -15 -19 -23 -6 -27 3 -9 21 9 9 5 12 -17
12 -17 0 -35 -4 -42 -8 -17 -11 -43 -76 -43 -109 -1 -24 -2 -26 -11 -10 -21
35 -38 121 -27 134 12 15 101 16 163 4z m296 -99 c57 -22 151 -54 209 -72 99
-30 124 -44 450 -254 190 -123 423 -267 519 -320 188 -105 325 -192 355 -225
10 -11 16 -27 13 -36 -8 -19 -118 -20 -286 -3 l-115 11 62 17 c63 17 102 43
102 65 0 26 -117 80 -153 71 -39 -9 -64 -105 -35 -134 15 -15 9 -15 -45 -2
-23 5 -140 30 -259 55 -241 50 -277 63 -393 139 -44 29 -159 100 -255 157
-111 66 -196 124 -232 159 -31 30 -91 78 -135 105 -43 28 -107 78 -143 112
-62 60 -63 62 -28 48 20 -8 61 -18 92 -21 l55 -7 -12 32 c-21 58 -1 70 148 86
l60 7 -45 24 c-63 33 -48 30 71 -14z m-735 -514 c17 -18 46 -53 64 -78 19 -25
58 -73 88 -107 29 -35 51 -63 49 -63 -18 0 -162 128 -195 172 -37 49 -72 109
-72 123 0 11 35 -14 66 -47z m-531 -63 c-35 -34 -32 -65 11 -106 l35 -34 97 0
c81 0 99 -3 110 -17 29 -39 179 -8 175 36 -1 16 4 17 39 12 66 -11 118 -44
218 -141 139 -134 208 -169 396 -201 82 -14 116 -26 202 -70 57 -30 116 -54
133 -54 28 0 29 -1 29 -49 l0 -49 55 -28 55 -29 -108 -27 c-295 -76 -362 -83
-454 -48 -29 11 -114 62 -188 114 -93 66 -155 101 -200 116 -93 30 -150 66
-150 93 0 18 -22 33 -124 85 -69 34 -149 71 -178 81 -65 22 -99 43 -188 112
-155 122 -143 223 27 228 l32 1 -24 -25z m1055 -337 c10 -6 7 -7 -10 -2 -14 3
-32 11 -40 16 -10 6 -7 7 10 2 14 -3 32 -11 40 -16z m88 -33 c24 -10 41 -19
39 -22 -3 -2 -29 8 -58 22 -59 27 -50 28 19 0z"/>
<path d="M4435 5361 l40 -6 -55 -20 c-61 -23 -87 -55 -76 -98 5 -20 21 -33 70
-57 l64 -30 30 -83 c16 -45 44 -128 61 -184 l32 -103 54 0 c53 0 55 -1 63 -32
l9 -33 13 45 c18 65 6 166 -35 288 -38 111 -69 172 -123 241 -48 59 -87 81
-142 80 l-45 -2 40 -6z"/>
<path d="M3860 5260 c-8 -5 -30 -10 -48 -10 -43 0 -58 -34 -42 -100 13 -54 28
-76 62 -89 55 -21 208 44 208 88 0 9 -15 31 -32 49 -18 17 -41 40 -50 52 -19
21 -72 27 -98 10z"/>
<path d="M3399 5082 c-34 -31 -42 -46 -46 -85 l-6 -47 41 0 c51 0 90 14 123
46 l26 25 26 -21 25 -20 21 29 c12 16 21 34 21 39 0 12 -72 42 -101 42 -15 0
-19 5 -15 15 4 12 -3 15 -35 15 -32 0 -47 -7 -80 -38z"/>
<path d="M3128 4998 c11 -13 7 -16 -29 -22 -56 -9 -76 -21 -99 -59 -40 -64
-26 -75 173 -146 l87 -30 20 40 c23 44 25 111 5 144 -19 32 -86 73 -130 81
-35 6 -38 5 -27 -8z"/>
<path d="M4004 4373 c-52 -56 -67 -89 -53 -114 13 -26 67 -49 112 -49 65 0
151 137 105 167 -23 14 -82 33 -106 33 -14 0 -37 -15 -58 -37z"/>
<path d="M4295 4096 c-13 -13 -28 -43 -34 -67 -26 -105 -53 -196 -66 -215 -8
-13 -50 -34 -112 -56 -68 -24 -99 -40 -101 -52 -4 -20 34 -63 89 -102 l38 -26
-33 -42 c-32 -41 -76 -109 -76 -119 0 -2 26 -8 58 -11 82 -10 177 -35 256 -67
l68 -28 -7 65 c-9 85 1 146 23 142 39 -5 73 13 88 47 8 19 14 42 14 51 0 9 11
25 25 36 26 20 55 100 55 150 0 16 -14 84 -31 153 l-31 124 -39 -25 c-21 -13
-41 -24 -44 -24 -3 0 -14 20 -25 45 -18 41 -22 45 -55 45 -25 0 -44 -8 -60
-24z"/>
<path d="M2318 3999 c-47 -27 14 -121 87 -135 71 -13 115 18 80 56 -15 17
-136 91 -147 90 -1 0 -11 -5 -20 -11z"/>
<path d="M2615 4003 c-21 -5 -75 -51 -75 -65 0 -9 71 -47 115 -60 34 -11 228
-37 234 -32 15 14 -156 149 -189 149 -14 1 -34 4 -45 7 -11 3 -29 3 -40 1z"/>
<path d="M2966 3629 c-30 -24 -34 -46 -8 -52 81 -23 142 -13 142 22 0 48 -87
67 -134 30z"/>
<path d="M3354 3555 c-8 -21 34 -103 62 -122 32 -21 67 -10 94 28 12 16 21 31
19 33 -2 1 -32 19 -65 39 -65 39 -101 46 -110 22z"/>
<path d="M1628 3219 c-22 -12 -23 -41 -3 -79 36 -70 112 -90 176 -47 56 38 47
87 -23 123 -31 16 -125 18 -150 3z"/>
</g>
</svg>
